<mxfile host="app.diagrams.net" modified="2021-10-12T14:14:00.750Z" agent="5.0 (Windows NT 10.0; Win64; x64) AppleWebKit/537.36 (KHTML, like Gecko) Chrome/94.0.4606.71 Safari/537.36" etag="tCJ2t8ik5g7fNrkP8s-N" version="15.5.1" type="github">
  <diagram id="2YDtvbEqmmr2WRJqGNYT" name="Page-1">
    <mxGraphModel dx="2382" dy="1617" grid="0" gridSize="10" guides="1" tooltips="1" connect="1" arrows="1" fold="1" page="0" pageScale="1" pageWidth="850" pageHeight="1100" math="0" shadow="0">
      <root>
        <mxCell id="0" />
        <mxCell id="1" parent="0" />
        <mxCell id="eWI_-dGI4IAz-TgmicA4-3" value="" style="edgeStyle=orthogonalEdgeStyle;rounded=0;orthogonalLoop=1;jettySize=auto;html=1;exitX=1;exitY=0.3333333333333333;exitDx=0;exitDy=0;exitPerimeter=0;" parent="1" source="eWI_-dGI4IAz-TgmicA4-1" edge="1">
          <mxGeometry relative="1" as="geometry">
            <mxPoint x="240" y="262" as="targetPoint" />
            <Array as="points">
              <mxPoint x="90" y="262" />
            </Array>
          </mxGeometry>
        </mxCell>
        <mxCell id="eWI_-dGI4IAz-TgmicA4-1" value="Admin" style="shape=umlActor;verticalLabelPosition=bottom;verticalAlign=top;html=1;outlineConnect=0;fontFamily=Times New Roman;fontSize=16;" parent="1" vertex="1">
          <mxGeometry x="38" y="235" width="50" height="80" as="geometry" />
        </mxCell>
        <mxCell id="eWI_-dGI4IAz-TgmicA4-5" value="" style="strokeWidth=2;html=1;shape=mxgraph.flowchart.annotation_1;align=left;pointerEvents=1;fontFamily=Times New Roman;fontSize=16;" parent="1" vertex="1">
          <mxGeometry x="240" y="-10" width="320" height="570" as="geometry" />
        </mxCell>
        <mxCell id="eWI_-dGI4IAz-TgmicA4-8" value="Đăng nhập/ Đăng xuất" style="ellipse;whiteSpace=wrap;html=1;fontFamily=Times New Roman;fontSize=16;" parent="1" vertex="1">
          <mxGeometry x="280" width="240" height="50" as="geometry" />
        </mxCell>
        <mxCell id="eWI_-dGI4IAz-TgmicA4-9" value="Đổi mật khẩu/Quên mật khẩu" style="ellipse;whiteSpace=wrap;html=1;fontFamily=Times New Roman;fontSize=16;" parent="1" vertex="1">
          <mxGeometry x="280" y="100" width="240" height="50" as="geometry" />
        </mxCell>
        <mxCell id="eWI_-dGI4IAz-TgmicA4-11" value="Quản lý danh mục" style="ellipse;whiteSpace=wrap;html=1;fontFamily=Times New Roman;fontSize=16;" parent="1" vertex="1">
          <mxGeometry x="280" y="150" width="240" height="50" as="geometry" />
        </mxCell>
        <mxCell id="eWI_-dGI4IAz-TgmicA4-26" value="Thống kê doanh thu từ cửa hàng" style="ellipse;whiteSpace=wrap;html=1;fontFamily=Times New Roman;fontSize=16;" parent="1" vertex="1">
          <mxGeometry x="280" y="300" width="240" height="50" as="geometry" />
        </mxCell>
        <mxCell id="eWI_-dGI4IAz-TgmicA4-28" value="Thống kê doanh thu từ khách hàng" style="ellipse;whiteSpace=wrap;html=1;fontFamily=Times New Roman;fontSize=16;" parent="1" vertex="1">
          <mxGeometry x="280" y="250" width="240" height="50" as="geometry" />
        </mxCell>
        <mxCell id="eWI_-dGI4IAz-TgmicA4-29" value="Phân hạng khách hàng" style="ellipse;whiteSpace=wrap;html=1;fontFamily=Times New Roman;fontSize=16;" parent="1" vertex="1">
          <mxGeometry x="280" y="400" width="240" height="50" as="geometry" />
        </mxCell>
        <mxCell id="eWI_-dGI4IAz-TgmicA4-30" value="Phân hạng cửa hàng" style="ellipse;whiteSpace=wrap;html=1;fontFamily=Times New Roman;fontSize=16;" parent="1" vertex="1">
          <mxGeometry x="280" y="450" width="240" height="50" as="geometry" />
        </mxCell>
        <mxCell id="eWI_-dGI4IAz-TgmicA4-31" value="Xem báo cáo vi phạm" style="ellipse;whiteSpace=wrap;html=1;fontFamily=Times New Roman;fontSize=16;" parent="1" vertex="1">
          <mxGeometry x="280" y="200" width="240" height="50" as="geometry" />
        </mxCell>
        <mxCell id="CH3Bwqs0S2gNGxrHbtev-1" value="Đăng ký" style="ellipse;whiteSpace=wrap;html=1;fontFamily=Times New Roman;fontSize=16;" parent="1" vertex="1">
          <mxGeometry x="280" y="50" width="240" height="50" as="geometry" />
        </mxCell>
        <mxCell id="CH3Bwqs0S2gNGxrHbtev-3" value="Quản lý người dùng" style="ellipse;whiteSpace=wrap;html=1;fontFamily=Times New Roman;fontSize=16;" parent="1" vertex="1">
          <mxGeometry x="280" y="350" width="240" height="50" as="geometry" />
        </mxCell>
        <mxCell id="CH3Bwqs0S2gNGxrHbtev-11" style="edgeStyle=orthogonalEdgeStyle;rounded=0;orthogonalLoop=1;jettySize=auto;html=1;fontFamily=Times New Roman;fontSize=16;" parent="1" edge="1">
          <mxGeometry relative="1" as="geometry">
            <mxPoint x="627" y="175" as="targetPoint" />
            <mxPoint x="520" y="174.5" as="sourcePoint" />
            <Array as="points">
              <mxPoint x="607" y="175" />
              <mxPoint x="607" y="175" />
            </Array>
          </mxGeometry>
        </mxCell>
        <mxCell id="o2e5PQmRFiPozlzjPbv9-1" value="Phê duyệt cửa hàng đăng ký" style="ellipse;whiteSpace=wrap;html=1;fontFamily=Times New Roman;fontSize=16;" parent="1" vertex="1">
          <mxGeometry x="283" y="500" width="240" height="50" as="geometry" />
        </mxCell>
        <mxCell id="Z55lD6U0m1PL-CB6iMaN-1" value="Thêm danh mục" style="ellipse;whiteSpace=wrap;html=1;fontFamily=Times New Roman;fontSize=16;" parent="1" vertex="1">
          <mxGeometry x="660" y="100" width="240" height="50" as="geometry" />
        </mxCell>
        <mxCell id="Z55lD6U0m1PL-CB6iMaN-2" value="Sửa danh mục" style="ellipse;whiteSpace=wrap;html=1;fontFamily=Times New Roman;fontSize=16;" parent="1" vertex="1">
          <mxGeometry x="660" y="150" width="240" height="50" as="geometry" />
        </mxCell>
        <mxCell id="Z55lD6U0m1PL-CB6iMaN-3" value="Xóa danh mục" style="ellipse;whiteSpace=wrap;html=1;fontFamily=Times New Roman;fontSize=16;" parent="1" vertex="1">
          <mxGeometry x="660" y="200" width="240" height="50" as="geometry" />
        </mxCell>
        <mxCell id="Z55lD6U0m1PL-CB6iMaN-4" value="Quản lý danh mục" style="ellipse;whiteSpace=wrap;html=1;fontFamily=Times New Roman;fontSize=16;" parent="1" vertex="1">
          <mxGeometry x="660" y="300" width="240" height="50" as="geometry" />
        </mxCell>
        <mxCell id="Z55lD6U0m1PL-CB6iMaN-5" value="Quản lý danh mục" style="ellipse;whiteSpace=wrap;html=1;fontFamily=Times New Roman;fontSize=16;" parent="1" vertex="1">
          <mxGeometry x="660" y="350" width="240" height="50" as="geometry" />
        </mxCell>
        <mxCell id="Z55lD6U0m1PL-CB6iMaN-6" value="Quản lý danh mục" style="ellipse;whiteSpace=wrap;html=1;fontFamily=Times New Roman;fontSize=16;" parent="1" vertex="1">
          <mxGeometry x="660" y="400" width="240" height="50" as="geometry" />
        </mxCell>
        <mxCell id="Z55lD6U0m1PL-CB6iMaN-7" value="" style="shape=curlyBracket;whiteSpace=wrap;html=1;rounded=1;" parent="1" vertex="1">
          <mxGeometry x="640" y="95" width="20" height="160" as="geometry" />
        </mxCell>
        <mxCell id="Z55lD6U0m1PL-CB6iMaN-8" value="" style="shape=curlyBracket;whiteSpace=wrap;html=1;rounded=1;" parent="1" vertex="1">
          <mxGeometry x="640" y="295" width="20" height="160" as="geometry" />
        </mxCell>
        <mxCell id="Z55lD6U0m1PL-CB6iMaN-9" style="edgeStyle=orthogonalEdgeStyle;rounded=0;orthogonalLoop=1;jettySize=auto;html=1;fontFamily=Times New Roman;fontSize=16;" parent="1" edge="1">
          <mxGeometry relative="1" as="geometry">
            <mxPoint x="630" y="375" as="targetPoint" />
            <mxPoint x="520" y="374.5" as="sourcePoint" />
            <Array as="points">
              <mxPoint x="549" y="375" />
              <mxPoint x="549" y="375" />
            </Array>
          </mxGeometry>
        </mxCell>
      </root>
    </mxGraphModel>
  </diagram>
</mxfile>
